HIERARCHY
ROOT Hips
{
	OFFSET -3.958830 18.904000 13.208200
	CHANNELS 6 Xposition Yposition Zposition Zrotation Yrotation Xrotation 
	JOINT LHipJoint
	{
		OFFSET 0.000000 0.000000 0.000000
		CHANNELS 3 Zrotation Yrotation Xrotation
		JOINT LeftUpLeg
		{
			OFFSET 1.800000 -1.400000 0.085000
			CHANNELS 3 Zrotation Yrotation Xrotation
			JOINT LeftLeg
			{
				OFFSET 2.215000 -6.000000 0.000000
				CHANNELS 3 Zrotation Yrotation Xrotation
				JOINT LeftFoot
				{
					OFFSET 2.500000 -6.900000 0.000000
					CHANNELS 3 Zrotation Yrotation Xrotation
					JOINT LeftToeBase
					{
						OFFSET 0.200000 -0.500000 1.950000
						CHANNELS 3 Zrotation Yrotation Xrotation
						End Site
						{
							OFFSET 0.000000 0.000000 0.000000
						}
					}
				}
			}
		}
	}
	JOINT RHipJoint
	{
		OFFSET 0.000000 0.000000 0.000000
		CHANNELS 3 Zrotation Yrotation Xrotation
		JOINT RightUpLeg
		{
			OFFSET -1.800000 -1.400000 0.085000
			CHANNELS 3 Zrotation Yrotation Xrotation
			JOINT RightLeg
			{
				OFFSET -2.215000 -6.000000 0.000000
				CHANNELS 3 Zrotation Yrotation Xrotation
				JOINT RightFoot
				{
					OFFSET -2.500000 -6.900000 0.000000
					CHANNELS 3 Zrotation Yrotation Xrotation
					JOINT RightToeBase
					{
						OFFSET -0.200000 -0.500000 1.950000
						CHANNELS 3 Zrotation Yrotation Xrotation
						End Site
						{
							OFFSET 0.000000 0.000000 0.000000
						}
					}
				}
			}
		}
	}
	JOINT LowerBack
	{
		OFFSET 0.000000 0.000000 0.000000
		CHANNELS 3 Zrotation Yrotation Xrotation
		JOINT Spine
		{
			OFFSET -0.087000 1.940000 -0.288900
			CHANNELS 3 Zrotation Yrotation Xrotation
			JOINT Spine1
			{
				OFFSET 0.000000 1.950000 0.060000
				CHANNELS 3 Zrotation Yrotation Xrotation
				JOINT Neck
				{
					OFFSET 0.000000 0.000000 0.000000
					CHANNELS 3 Zrotation Yrotation Xrotation
					JOINT Neck1
					{
						OFFSET 0.000000 1.600000 0.340000
						CHANNELS 3 Zrotation Yrotation Xrotation
						JOINT Head
						{
							OFFSET 0.000000 1.667000 -0.240000
							CHANNELS 3 Zrotation Yrotation Xrotation
							End Site
							{
								OFFSET 0.000000 0.000000 0.000000
							}
						}
					}
				}
				JOINT LeftShoulder
				{
					OFFSET 0.000000 0.000000 0.000000
					CHANNELS 3 Zrotation Yrotation Xrotation
					JOINT LeftArm
					{
						OFFSET 2.700000 1.550000 -0.730000
						CHANNELS 3 Zrotation Yrotation Xrotation
						JOINT LeftForeArm
						{
							OFFSET 5.450000 0.000000 0.000000
							CHANNELS 3 Zrotation Yrotation Xrotation
							JOINT LeftHand
							{
								OFFSET 3.450000 0.000000 0.000000
								CHANNELS 3 Zrotation Yrotation Xrotation
								JOINT LeftHandIndex1
								{
									OFFSET 0.750000 0.000000 0.000000
									CHANNELS 3 Zrotation Yrotation Xrotation
									End Site
									{
										OFFSET 0.000000 0.000000 0.000000
									}
								}
							}
						}
					}
				}
				JOINT RightShoulder
				{
					OFFSET 0.000000 0.000000 0.000000
					CHANNELS 3 Zrotation Yrotation Xrotation
					JOINT RightArm
					{
						OFFSET -2.700000 1.550000 -0.730000
						CHANNELS 3 Zrotation Yrotation Xrotation
						JOINT RightForeArm
						{
							OFFSET -5.450000 0.000000 0.000000
							CHANNELS 3 Zrotation Yrotation Xrotation
							JOINT RightHand
							{
								OFFSET -3.450000 0.000000 0.000000
								CHANNELS 3 Zrotation Yrotation Xrotation
								JOINT RightHandIndex1
								{
									OFFSET -0.750000 0.000000 0.000000
									CHANNELS 3 Zrotation Yrotation Xrotation
									End Site
									{
										OFFSET 0.000000 0.000000 0.000000
									}
								}
							}
						}
					}
				}
			}
		}
	}
}
MOTION
Frames: 10
Frame Time: 0.016667
0.208380 16.255580 -2.545750 -14.212144 -22.657735 17.183865 -15.930959 13.867921 3.050541 3.078644 -0.393208 10.472215 -8.209474 7.329153 9.295532 0.221058 5.986191 2.843919 0.383550 -0.068190 0.377990 17.917946 -7.177534 5.183337 26.184720 13.229348 -35.511182 9.666815 -1.670867 -0.223367 0.099840 -0.647852 4.420278 -0.086570 0.179840 0.193760 -1.932086 -7.153278 -9.001599 5.040434 -9.001151 24.399586 9.011852 -6.333948 -8.044393 1.695634 -4.510743 -8.411907 -10.399451 10.079377 28.642920 -5.622970 12.048040 -14.771280 -16.747421 2.625978 0.236976 -24.112957 1.280605 -4.159675 38.708584 -33.648546 -9.684329 -3.609349 2.783247 0.698910 0.073070 -0.003640 0.227620 15.825433 -0.947315 6.455118 37.166625 -18.836612 -17.990000 -1.622897 87.841822 -7.264588 1.549575 -1.983799 -0.241850 0.162490 -0.086320 -0.335810 
0.191010 16.278870 -2.391230 -13.568200 -23.592985 16.655322 -15.927499 13.974163 3.055570 2.172238 -0.156319 9.876242 -8.163389 7.735377 12.147239 0.260934 6.056970 2.798248 0.376850 -0.089500 0.392850 17.882784 -7.364498 5.065709 24.698754 12.379160 -34.229121 10.879996 -1.772891 -0.591169 0.075608 -0.763776 4.373657 -0.116940 0.152350 0.211280 -1.845034 -7.075814 -9.000855 4.523125 -8.407879 22.770936 9.582143 -5.955614 -8.174927 1.939020 -4.178810 -8.768329 -10.070473 10.010742 30.550004 -6.099150 12.371340 -13.191600 -16.861639 1.697457 0.927564 -23.154855 2.713883 -3.861929 28.004524 -28.995899 -5.736347 -3.621936 2.860343 0.691300 0.068270 0.007430 0.212900 15.544991 0.012711 6.294501 37.287903 -19.472439 -19.867817 -18.215983 84.723296 -19.059148 1.492925 -1.678327 -0.214240 0.116610 -0.091090 -0.340150 
0.176990 16.311120 -2.221780 -12.866957 -24.712813 16.122920 -15.908370 14.036717 3.040498 1.106733 -0.021133 8.714932 -8.254986 8.303227 15.914561 0.301289 6.218128 2.729593 0.347430 -0.127540 0.381040 17.867755 -7.553674 4.970541 23.401578 11.655613 -33.048813 11.645312 -1.924912 -0.351522 0.068220 -0.881495 4.342457 -0.148760 0.158580 0.220000 -1.810203 -6.911010 -8.976240 4.224396 -7.803396 20.971115 9.808670 -5.570183 -8.227139 2.200293 -3.889644 -9.139340 -9.696043 10.162023 31.935923 -6.471120 12.923670 -11.239480 -16.662165 1.175848 1.511704 -23.232549 3.852347 -3.544708 18.737271 -24.209365 -3.159118 -3.659730 2.885895 0.676640 0.085350 -0.000770 0.202640 14.901212 0.511229 6.214094 37.832525 -19.646215 -20.747706 -24.894210 80.906267 -21.443590 1.456450 -1.498276 -0.206110 0.094390 -0.080280 -0.340160 
0.164510 16.350840 -2.036710 -12.528215 -26.147980 15.485542 -15.874013 14.004008 3.032386 0.646320 -0.099533 7.678112 -9.297239 9.235354 19.630224 0.374719 6.568592 2.594015 0.324880 -0.158350 0.384450 17.878351 -7.752048 4.861303 22.293968 10.983772 -31.355356 12.472029 -2.144442 0.084047 0.046161 -1.050050 4.283671 -0.172090 0.153630 0.233470 -1.846638 -6.576251 -8.947921 4.465046 -7.026491 19.042409 9.210568 -5.181609 -7.340298 2.622440 -3.188368 -9.496098 -8.376725 10.185061 33.107375 -7.459690 14.029830 -9.690540 -17.370633 0.080459 2.109615 -22.854120 5.178909 -3.344605 12.068053 -19.858589 -1.792265 -3.696990 2.902243 0.666900 0.104640 -0.002940 0.189690 14.673112 1.237273 6.241486 38.829589 -19.479380 -21.408466 -26.751089 76.756005 -20.334293 1.451714 -1.434255 -0.202110 0.062310 -0.076560 -0.350140 
0.144680 16.406860 -1.851920 -11.950651 -27.272028 14.417665 -15.861338 13.945651 3.032270 0.868359 -0.453743 6.472585 -10.972273 10.546028 23.427901 0.494268 7.084906 2.383506 0.312370 -0.182340 0.409480 17.873167 -7.939007 4.725063 21.291965 10.201992 -29.400017 12.732428 -2.371068 0.707485 0.022397 -1.223312 4.200502 -0.197390 0.121630 0.269690 -1.823657 -6.233564 -8.912157 3.951587 -6.103820 17.237800 8.855749 -4.879429 -6.036860 3.082143 -1.984215 -9.692005 -6.065909 9.991938 34.340486 -8.736940 15.473660 -8.238530 -18.714336 -1.224651 2.724266 -22.541419 6.517652 -3.197063 7.273765 -16.214127 -1.109180 -3.736113 2.954037 0.643840 0.123710 0.001360 0.156280 15.011071 1.779466 6.198150 39.245509 -19.287979 -21.545112 -24.694964 72.544227 -17.126413 1.499411 -1.496629 -0.172490 -0.012670 -0.073700 -0.368100 
0.125790 16.455190 -1.658640 -11.414948 -28.303099 13.410271 -15.814994 13.846570 3.042233 1.447914 -1.072480 4.710269 -12.887480 12.294864 27.982277 0.679013 7.798468 2.141767 0.309580 -0.173720 0.409210 17.903119 -8.138892 4.553444 20.026844 9.271890 -27.215925 13.568866 -2.609693 0.965968 -0.015754 -1.437786 4.137541 -0.201640 0.130260 0.272630 -1.925499 -5.849302 -8.823077 4.307861 -5.536199 15.416355 8.062042 -4.690440 -4.980267 3.183494 -1.755994 -9.791918 -5.552997 10.151537 34.599691 -8.650510 15.937360 -6.944080 -18.836485 -1.446435 3.076233 -24.376464 7.082311 -3.193275 4.115087 -12.912320 -0.833495 -3.766806 2.954077 0.609070 0.141450 -0.001680 0.164240 14.790203 1.870200 6.073093 40.057673 -18.738559 -21.443179 -21.788741 68.574231 -13.912023 1.552062 -1.548347 -0.155820 -0.023630 -0.089560 -0.354190 
0.110020 16.520060 -1.488710 -10.457828 -28.979799 11.937099 -15.782719 13.748469 3.133670 2.482791 -1.880326 2.661836 -15.383987 14.593112 32.597572 0.904826 8.712494 1.828681 0.318510 -0.158880 0.405120 17.917383 -8.291897 4.366792 18.634549 8.281503 -25.195292 13.364520 -2.760036 1.242744 -0.046591 -1.569898 4.103742 -0.202500 0.118210 0.260570 -1.985313 -5.586919 -8.786930 4.230540 -5.060148 14.477605 7.374079 -4.364398 -4.550764 3.227015 -1.985519 -10.084274 -6.080030 10.596262 35.480879 -7.897300 15.967290 -6.076810 -18.466547 -1.454800 3.387369 -26.686290 7.575749 -3.288287 1.074353 -10.536098 -0.702311 -3.754398 2.953088 0.608310 0.127840 0.003750 0.173460 14.275665 2.145033 6.135063 41.399806 -18.007780 -21.268674 -18.857531 64.246310 -10.931430 1.606741 -1.567637 -0.146280 -0.031140 -0.105180 -0.347530 
0.093920 16.588150 -1.342290 -9.362326 -29.734137 10.403364 -15.783953 13.601652 3.285019 3.581265 -2.786179 0.142129 -17.900525 17.348507 37.511817 1.168440 9.798591 1.473098 0.341060 -0.131730 0.415530 17.912213 -8.388225 4.168397 17.350157 7.383176 -23.390075 12.772572 -2.895671 1.810383 -0.074402 -1.672767 4.076146 -0.189160 0.108770 0.246320 -1.976661 -5.366226 -8.759257 3.528295 -4.220659 13.840473 7.218674 -3.694047 -4.224311 3.116084 -2.398558 -10.097267 -6.986971 10.975160 35.989908 -7.053100 15.627060 -5.819890 -18.188859 -1.139707 3.331245 -29.296763 7.051567 -3.264317 -1.017497 -8.228343 -0.694502 -3.752666 2.937497 0.611070 0.112540 0.009580 0.183970 14.246422 2.332689 6.131607 41.997021 -17.313961 -20.605478 -15.019809 59.614243 -7.914571 1.669783 -1.584271 -0.142030 -0.023180 -0.123910 -0.343640 
0.081320 16.638730 -1.205950 -7.890593 -28.798170 9.063999 -15.785615 13.404983 3.465806 4.868883 -4.069751 -3.241085 -19.488007 19.930009 42.733865 1.420693 10.908243 1.143368 0.330430 -0.135370 0.377230 17.914760 -8.452506 3.943082 15.584272 6.597087 -22.498935 12.397667 -2.978849 2.196145 -0.065238 -1.767066 4.070332 -0.177050 0.156640 0.219860 -2.008247 -5.156950 -8.682853 2.729267 -3.963524 12.952390 7.284669 -3.655352 -3.923375 2.713850 -2.917307 -9.944145 -7.824093 11.235034 34.762424 -5.797280 14.938710 -4.645970 -16.683431 -0.167579 3.344509 -32.845382 7.340833 -3.885554 -3.307160 -8.070387 -0.725208 -3.758056 2.927980 0.592020 0.130320 -0.026720 0.211140 13.527832 1.796342 5.808062 43.388901 -16.178574 -20.035482 -13.311535 54.655356 -6.208488 1.715610 -1.574448 -0.167670 0.008160 -0.126870 -0.325220 
0.069540 16.693790 -1.082470 -6.568061 -27.771100 7.550514 -15.810689 13.181886 3.714854 6.323203 -5.387066 -6.495769 -21.088234 22.662344 47.619085 1.670378 12.037369 0.804179 0.334850 -0.121220 0.345350 17.904182 -8.470245 3.702582 13.952652 5.686566 -21.084209 11.961099 -3.018732 2.018542 -0.072322 -1.869215 4.059004 -0.156140 0.185220 0.202640 -1.989852 -5.021182 -8.649135 1.816522 -3.523245 12.495260 7.265686 -3.386093 -3.441087 2.396514 -3.377553 -9.684183 -8.710391 11.273762 34.039762 -4.631380 13.868620 -4.445480 -15.578784 0.886198 3.010423 -36.042865 6.848598 -4.337413 -5.342129 -7.563980 -0.786106 -3.767507 2.912287 0.587250 0.137630 -0.047660 0.231140 13.037680 1.175223 5.686345 44.309153 -16.345554 -19.741890 -9.266595 51.074028 -4.182953 1.740169 -1.577593 -0.182590 0.037620 -0.123080 -0.312700 
